<?xml version="1.0" encoding="utf-8"?>
<!-- Generator: Adobe Illustrator 15.0.0, SVG Export Plug-In . SVG Version: 6.00 Build 0)  -->
<!DOCTYPE svg PUBLIC "-//W3C//DTD SVG 1.1//EN" "http://www.w3.org/Graphics/SVG/1.1/DTD/svg11.dtd">
<svg version="1.1" id="Layer_1" xmlns="http://www.w3.org/2000/svg" xmlns:xlink="http://www.w3.org/1999/xlink" x="0px" y="0px"
	 width="103px" height="62px" viewBox="0 0 103 62" enable-background="new 0 0 103 62" xml:space="preserve">
<g>
	<path fill-rule="evenodd" clip-rule="evenodd" fill="#CECECD" d="M76.759,21.465c0.166-1.12,0.348-2.809-0.549-3.748
		c-0.69,0.344-1.149,0.923-1.553,1.553c-3.729,3.376-9.103,6.09-15.621,6.943c-2.274,0.298-4.788,0.695-7.125,0.458
		c-8.762-0.899-7.893-12.263-12.33-17.723c-1.241-0.67-3.542-1.574-5.436-1.574c-1.893,0-2.559-0.061-5.435,1.574
		c-0.468,0.926-1.008,1.695-1.189,2.742c-0.063,0.375,0.055,0.791-0.091,1.187c-0.276,0.747-1.317,1.323-1.824,2.192
		c-0.57,0.962-0.777,1.802-0.824,3.104c0.883-0.174,2.597-0.737,4.018-0.362c4.871,3.87-0.069,12.596,0.824,18.54
		c0.148,0.977,0.061,1.911,0.275,2.741c1.309,5.133,5.325,8.566,9.958,10.502c2.333,0.979,4.909,1.434,7.672,2.015
		c0,0.759,0,1.518,0,2.279c-2.499,0.621-6.631,4.196-3.106,6.578c0.576,0,1.157,0,1.734,0c0.598-0.186,0.823-0.896,1.373-1.37
		c1.233-1.071,3.173-0.992,4.477,0c0.336,0.607,0.922,0.964,1.46,1.37c0.578,0,1.154,0,1.736,0c3.255-2.189-0.289-6.013-3.106-6.486
		c0-0.854,0-1.703,0-2.557c1.427-0.135,2.817-0.399,4.108-0.73c1.292-0.325,2.601-0.577,3.568-1.28
		c-7.196-0.146-11.524-3.342-13.98-8.217c-0.916-1.828-1.868-4.133-1.736-6.304c1.891,6.584,6.477,11.424,13.883,11.874
		c7.348,0.442,10.805-3.126,13.337-7.219c0.676-1.092,1.186-2.403,2.283-3.287c0.529-0.422,1.348-0.503,1.825-1.095
		c-0.47-1.266-1.666-1.8-3.104-2.103c0.711-1.057,2.078-1.458,3.295-2.009c-0.411-1.514-1.856-1.981-3.659-2.104
		C74.234,27.61,76.258,24.77,76.759,21.465z M32.053,14.212c-0.766,0-1.408-0.442-1.754-1.066c-0.013-0.004-0.023,0.012-0.036,0.008
		c-0.79-0.166-0.681-1.134-0.147-1.438c0.212-0.891,0.98-1.566,1.937-1.566c1.122,0,2.031,0.908,2.031,2.03
		S33.175,14.212,32.053,14.212z"/>
	<path fill-rule="evenodd" clip-rule="evenodd" fill="#CECECD" d="M30.537,11.599c-0.167-0.028-0.297,0.045-0.42,0.116
		c-0.038,0.154-0.093,0.298-0.093,0.464c0,0.358,0.115,0.674,0.276,0.966C31.147,13.27,31.751,11.794,30.537,11.599z"/>
	<path fill-rule="evenodd" clip-rule="evenodd" fill="#EC6166" d="M31.268,4.29c0.126-0.405,0.287-0.774,0.492-1.103
		c0.363-0.966,1.292-1.655,2.386-1.655c1.279,0,2.336,0.942,2.518,2.172c0.065,0.131,0.125,0.264,0.178,0.405
		c3.321-1.08,4.861,3.17,2.74,4.84c-1.241-0.67-3.542-1.574-5.436-1.574c-1.893,0-2.559-0.061-5.435,1.574
		c-0.437-0.708-1.056-1.28-1.098-2.193C27.534,4.906,29.258,3.338,31.268,4.29z"/>
</g>
</svg>
