<?xml version="1.0" encoding="utf-8"?>
<!-- Generator: Adobe Illustrator 16.0.0, SVG Export Plug-In . SVG Version: 6.00 Build 0)  -->
<!DOCTYPE svg PUBLIC "-//W3C//DTD SVG 1.1//EN" "http://www.w3.org/Graphics/SVG/1.1/DTD/svg11.dtd">
<svg version="1.1" id="Layer_1" xmlns="http://www.w3.org/2000/svg" xmlns:xlink="http://www.w3.org/1999/xlink" x="0px" y="0px"
	 width="103px" height="62px" viewBox="0 0 103 62" enable-background="new 0 0 103 62" xml:space="preserve">
<path fill="#EC6166" d="M81.637,23.845c-3.113-1.553-6.224-12.437-9.334-15.241c-3.109-2.798-3.421-5.904-9.019-6.527H36.967
	C31.371,2.7,31.06,5.806,27.95,8.604c-3.112,2.804-6.221,13.688-9.33,15.241c-3.112,1.559-2.698,7.772-2.698,7.772V43.54
	c0,5.808,4.148,6.636,4.148,6.636s0.722,0.417,0.722,2.905c0,2.491,0,7.778,3.735,7.465c3.734-0.31,4.667-0.31,4.356-4.044
	s0.311-6.219,3.729-6.219h35.029c3.418,0,4.039,2.484,3.729,6.219c-0.313,3.734,0.622,3.734,4.355,4.044
	c3.729,0.313,3.729-4.974,3.729-7.465c0-2.488,0.73-2.905,0.73-2.905s4.146-0.828,4.146-6.636V31.617
	C84.33,31.617,84.744,25.403,81.637,23.845 M26.291,41.475c-3.434,0-6.221-2.793-6.221-6.228c0-3.431,2.787-6.217,6.221-6.217
	c3.435,0,6.219,2.786,6.219,6.217C32.51,38.682,29.726,41.475,26.291,41.475 M65.873,24.468H34.375c-3.315,0-7.877-1.04-4.143-6.013
	c3.729-4.974,2.689-6.841,8.086-6.841h23.62c5.393,0,4.356,1.868,8.084,6.841C73.757,23.428,69.193,24.468,65.873,24.468
	 M73.962,41.475c-3.437,0-6.224-2.793-6.224-6.228c0-3.431,2.787-6.217,6.224-6.217c3.438,0,6.224,2.786,6.224,6.217
	C80.186,38.682,77.4,41.475,73.962,41.475"/>
</svg>
