<?xml version="1.0" encoding="utf-8"?>
<!-- Generator: Adobe Illustrator 15.0.0, SVG Export Plug-In . SVG Version: 6.00 Build 0)  -->
<!DOCTYPE svg PUBLIC "-//W3C//DTD SVG 1.1//EN" "http://www.w3.org/Graphics/SVG/1.1/DTD/svg11.dtd">
<svg version="1.1" id="Layer_1" xmlns="http://www.w3.org/2000/svg" xmlns:xlink="http://www.w3.org/1999/xlink" x="0px" y="0px"
	 width="103px" height="62px" viewBox="0 0 103 62" enable-background="new 0 0 103 62" xml:space="preserve">
<path fill="#27A6CD" d="M75.902,90.31c-2.027-2.439-6.921-8.555-21.984-8.555H46.33c-15.073,0-19.964,6.115-21.991,8.555
	c-2.042,2.449-3.669,28.101-3.669,28.101v27.702h5.297v4.477c0,0,2.036,4.078,4.072,4.078c2.033,0,4.068-3.268,4.068-3.268v-5.088
	h32.026v5.088c0,0,2.038,3.268,4.073,3.268c2.039,0,4.065-4.078,4.065-4.078v-4.477h5.312V118.41
	C79.582,118.41,77.949,92.759,75.902,90.31 M38.029,87.054h24.186c1.261,0,2.291,1.034,2.291,2.297c0,1.255-1.03,2.283-2.291,2.283
	H38.029c-1.264,0-2.287-1.028-2.287-2.283C35.742,88.088,36.765,87.054,38.029,87.054 M29.783,136.238
	c-2.615,0-4.737-2.124-4.737-4.744c0-2.612,2.122-4.725,4.737-4.725c2.612,0,4.731,2.112,4.731,4.725
	C34.514,134.114,32.396,136.238,29.783,136.238 M40.779,117.446H26.117c0,0-0.306,1.067,0.459-10.537
	c0.759-11.61,5.494-12.368,5.494-12.368H68.17c0,0,4.731,0.758,5.498,12.368c0.763,11.604,0.454,10.537,0.454,10.537H59.466H40.779z
	 M70.461,136.238c-2.618,0-4.734-2.124-4.734-4.744c0-2.612,2.116-4.725,4.734-4.725c2.613,0,4.736,2.112,4.736,4.725
	C75.197,134.114,73.074,136.238,70.461,136.238"/>
<path fill="#EC6166" d="M81.636,23.845c-3.112-1.553-6.223-12.437-9.333-15.241c-3.109-2.798-3.421-5.904-9.019-6.527H36.967
	C31.371,2.7,31.06,5.806,27.95,8.604c-3.112,2.804-6.221,13.688-9.33,15.241c-3.112,1.559-2.698,7.772-2.698,7.772V43.54
	c0,5.808,4.148,6.636,4.148,6.636s0.722,0.417,0.722,2.905c0,2.491,0,7.778,3.735,7.465c3.734-0.309,4.667-0.309,4.356-4.044
	c-0.311-3.734,0.311-6.219,3.729-6.219h35.028c3.418,0,4.04,2.484,3.729,6.219c-0.312,3.735,0.622,3.735,4.356,4.044
	c3.728,0.313,3.728-4.974,3.728-7.465c0-2.488,0.73-2.905,0.73-2.905s4.146-0.828,4.146-6.636V31.617
	C84.33,31.617,84.744,25.403,81.636,23.845 M26.291,41.474c-3.434,0-6.221-2.793-6.221-6.227c0-3.431,2.787-6.217,6.221-6.217
	c3.435,0,6.219,2.787,6.219,6.217C32.51,38.681,29.726,41.474,26.291,41.474 M65.873,24.468H34.375c-3.315,0-7.877-1.04-4.143-6.013
	c3.729-4.974,2.689-6.841,8.086-6.841h23.619c5.393,0,4.357,1.868,8.085,6.841C73.757,23.428,69.193,24.468,65.873,24.468
	 M73.962,41.474c-3.436,0-6.223-2.793-6.223-6.227c0-3.431,2.787-6.217,6.223-6.217c3.438,0,6.223,2.787,6.223,6.217
	C80.185,38.681,77.4,41.474,73.962,41.474"/>
<g>
	<g>
		<rect x="14.652" y="194.862" fill="none" width="68.607" height="49.681"/>
		<text transform="matrix(1 0 0 1 29.894 236.5625)" fill="#989898" font-family="'LilyUPC'" font-size="89.4878">H</text>
		<polyline fill="none" stroke="#989898" stroke-width="9.4923" stroke-miterlimit="10" points="19.87,193.721 48.956,178.055 
			78.039,193.721 		"/>
	</g>
</g>
</svg>
