<?xml version="1.0" encoding="utf-8"?>
<!-- Generator: Adobe Illustrator 15.0.0, SVG Export Plug-In . SVG Version: 6.00 Build 0)  -->
<!DOCTYPE svg PUBLIC "-//W3C//DTD SVG 1.1//EN" "http://www.w3.org/Graphics/SVG/1.1/DTD/svg11.dtd">
<svg version="1.1" id="Layer_1" xmlns="http://www.w3.org/2000/svg" xmlns:xlink="http://www.w3.org/1999/xlink" x="0px" y="0px"
	 width="103px" height="62px" viewBox="0 0 103 62" enable-background="new 0 0 103 62" xml:space="preserve">
<path fill="#27A6CD" d="M72.092,8.588c-1.619-1.949-5.528-6.834-17.563-6.834h-6.062C36.426,1.754,32.52,6.64,30.9,8.588
	c-1.631,1.957-2.931,22.448-2.931,22.448v22.13H32.2v3.576c0,0,1.626,3.258,3.252,3.258c1.625,0,3.25-2.61,3.25-2.61v-4.064h25.583
	v4.064c0,0,1.629,2.61,3.254,2.61c1.629,0,3.248-3.258,3.248-3.258v-3.576h4.243v-22.13C75.031,31.036,73.727,10.545,72.092,8.588
	 M41.837,5.987h19.32c1.008,0,1.83,0.826,1.83,1.835c0,1.002-0.822,1.824-1.83,1.824h-19.32c-1.01,0-1.827-0.821-1.827-1.824
	C40.01,6.813,40.827,5.987,41.837,5.987 M35.25,45.278c-2.089,0-3.784-1.697-3.784-3.79c0-2.087,1.695-3.774,3.784-3.774
	c2.087,0,3.779,1.688,3.779,3.774C39.029,43.581,37.336,45.278,35.25,45.278 M44.033,30.267H32.321c0,0-0.245,0.853,0.367-8.418
	c0.606-9.275,4.389-9.88,4.389-9.88h28.838c0,0,3.779,0.605,4.392,9.88c0.609,9.271,0.363,8.418,0.363,8.418H58.961H44.033z
	 M67.745,45.278c-2.092,0-3.782-1.697-3.782-3.79c0-2.087,1.69-3.774,3.782-3.774c2.088,0,3.783,1.688,3.783,3.774
	C71.528,43.581,69.833,45.278,67.745,45.278"/>
<g>
	<g>
		<rect x="14.652" y="194.862" fill="none" width="68.607" height="49.681"/>
		<text transform="matrix(1 0 0 1 29.894 236.5625)" fill="#989898" font-family="'LilyUPC'" font-size="89.4878">H</text>
		<polyline fill="none" stroke="#989898" stroke-width="9.4923" stroke-miterlimit="10" points="19.87,193.721 48.956,178.055 
			78.039,193.721 		"/>
	</g>
</g>
</svg>
