<?xml version="1.0" encoding="utf-8"?>
<!-- Generator: Adobe Illustrator 15.0.0, SVG Export Plug-In . SVG Version: 6.00 Build 0)  -->
<!DOCTYPE svg PUBLIC "-//W3C//DTD SVG 1.1//EN" "http://www.w3.org/Graphics/SVG/1.1/DTD/svg11.dtd">
<svg version="1.1" id="Layer_1" xmlns="http://www.w3.org/2000/svg" xmlns:xlink="http://www.w3.org/1999/xlink" x="0px" y="0px"
	 width="103px" height="62px" viewBox="0 0 103 62" enable-background="new 0 0 103 62" xml:space="preserve">
<path fill-rule="evenodd" clip-rule="evenodd" fill="#CFCECE" d="M33.179,27.228c-5.934,0.609-11.464,2.768-14.211,6.097
	c-5.11-3.549-8.596-8.583-11.943-13.738c-0.082,7.177-2.661,14.231-6.256,18.585c5.207,0.011,10.783-4.678,17.546-3.678
	c2.877,0.426,5.672,2.903,8.83,3.404c2.745,0.439,5.384,0.535,7.881,0.313L33.179,27.228z"/>
<path fill-rule="evenodd" clip-rule="evenodd" fill="none" stroke="#FFFFFF" stroke-width="7.2045" stroke-miterlimit="10" d="
	M30.749,33.55c0.958,4.367,3.267,7.569,5.155,7.153c1.89-0.417,2.644-4.289,1.687-8.659c-0.957-4.362-3.267-7.565-5.159-7.15
	C30.542,25.307,29.786,29.184,30.749,33.55z"/>
<path fill-rule="evenodd" clip-rule="evenodd" fill="none" stroke="#FDE700" stroke-width="4.3227" stroke-miterlimit="10" d="
	M30.749,33.55c0.958,4.367,3.267,7.569,5.155,7.153c1.89-0.417,2.644-4.289,1.687-8.659c-0.957-4.362-3.267-7.565-5.159-7.15
	C30.542,25.307,29.786,29.184,30.749,33.55z"/>
<path fill-rule="evenodd" clip-rule="evenodd" fill="#CFCECE" d="M33.988,27.237c0,0-0.564,2.411-0.256,5.488
	c0.311,3.077,2.103,5.497,2.103,5.497c6.264-0.563,11.627-3.123,15.515-7.313C46.98,27.67,40.259,26.59,33.988,27.237z
	 M45.645,32.753c-0.138,0.03-0.276,0.043-0.412,0.043c-0.911,0-1.73-0.633-1.929-1.557l0.892-0.192
	c0.123,0.57,0.685,0.937,1.255,0.813c0.565-0.125,0.931-0.688,0.81-1.255l0.893-0.19C47.378,31.473,46.701,32.521,45.645,32.753z"/>
<path fill="#CFCECE" d="M50.36,31.042l-2.62,2.087l-4.036,2.081c1.142,0.658,2.743,2.539,2.743,2.539l0.493-1.387
	c0,0,2.309,0.473,2.555,1.019c0.242,0.546,0.582-2.859,0.582-2.859s0.681-0.213,1.032,0.141
	C51.462,35.019,50.36,31.042,50.36,31.042z"/>
<path fill-rule="evenodd" clip-rule="evenodd" fill="#CFCECE" d="M68.571,39.771c2.466,0.451,5.103,0.604,7.876,0.421
	c3.19-0.206,6.203-2.412,9.108-2.57c6.826-0.37,11.943,4.817,17.129,5.292c-3.177-4.673-5.09-11.934-4.507-19.085
	c-3.813,4.822-7.747,9.507-13.166,12.569c-2.426-3.571-7.732-6.23-13.584-7.391L68.571,39.771z"/>
<path fill-rule="evenodd" clip-rule="evenodd" fill="none" stroke="#FFFFFF" stroke-width="7.2045" stroke-miterlimit="10" d="
	M73.263,35.528c-1.359,4.26-3.957,7.232-5.798,6.645c-1.843-0.592-2.233-4.518-0.875-8.777c1.355-4.259,3.953-7.231,5.8-6.641
	C74.232,27.341,74.626,31.269,73.263,35.528z"/>
<path fill-rule="evenodd" clip-rule="evenodd" fill="none" stroke="#FDE700" stroke-width="4.3227" stroke-miterlimit="10" d="
	M73.263,35.528c-1.359,4.26-3.957,7.232-5.798,6.645c-1.843-0.592-2.233-4.518-0.875-8.777c1.355-4.259,3.953-7.231,5.8-6.641
	C74.232,27.341,74.626,31.269,73.263,35.528z"/>
<path fill-rule="evenodd" clip-rule="evenodd" fill="#CFCECE" d="M70.623,28.94c-6.185-1.225-12.979-0.774-17.63,2.044
	c3.483,4.535,8.587,7.584,14.771,8.719c0,0,2.009-2.238,2.604-5.275C70.96,31.393,70.623,28.94,70.623,28.94z M60.006,33.215
	c-0.285,0.149-0.596,0.225-0.907,0.225c-0.2,0-0.398-0.031-0.594-0.092c-1.032-0.324-1.611-1.43-1.287-2.464l0.871,0.271
	c-0.174,0.556,0.136,1.148,0.689,1.322c0.27,0.083,0.556,0.059,0.805-0.071c0.251-0.131,0.437-0.352,0.521-0.621l0.871,0.274
	C60.815,32.562,60.472,32.972,60.006,33.215z"/>
</svg>
