<?xml version="1.0" encoding="utf-8"?>
<!-- Generator: Adobe Illustrator 15.0.0, SVG Export Plug-In . SVG Version: 6.00 Build 0)  -->
<!DOCTYPE svg PUBLIC "-//W3C//DTD SVG 1.1//EN" "http://www.w3.org/Graphics/SVG/1.1/DTD/svg11.dtd">
<svg version="1.1" id="Layer_1" xmlns="http://www.w3.org/2000/svg" xmlns:xlink="http://www.w3.org/1999/xlink" x="0px" y="0px"
	 width="103px" height="62px" viewBox="0 0 103 62" enable-background="new 0 0 103 62" xml:space="preserve">
<path fill-rule="evenodd" clip-rule="evenodd" fill="#ED6166" d="M26.894,17.765c0.004-3.162,0.995-5.339,2.019-7.482
	c0.143-0.02,0.133-0.182,0.205-0.271c0.461-0.729,0.853-1.4,1.481-2.153c0.439-0.524,1.2-1.648,1.886-1.752
	c1.081-0.167,2.21,1.109,2.972,1.686c0.886,0.676,1.715,1.286,2.353,1.886c0.224,0.271,0.467,0.519,0.743,0.738
	c0.542,0.514,1.029,1.091,1.553,1.62c4.601,5.219,7.323,12.317,10.245,19.211c0.016,0.053,0.002,0.134,0.066,0.134
	c1.596,3.867,3.227,7.696,6.204,10.177c0.036,0.101,0.104,0.168,0.201,0.205c0.159,0.019,0.125,0.234,0.336,0.2
	c0.109,0.205,0.343,0.286,0.541,0.405c0.133,0,0.086,0.186,0.271,0.139c0.301,0.188,0.578,0.404,1.078,0.404
	c0.014,0.047,0.057,0.071,0.135,0.062c0.066,0,0.133,0,0.203,0c1.216,0.233,2.293-0.262,3.233-0.539
	c0.004-0.043,0.01-0.075,0.067-0.065c0.868-0.348,1.695-0.729,2.427-1.209c0.092,0,0.149-0.034,0.201-0.073
	c1.166-0.972,2.382-0.395,3.575,0.34c2.01,1.232,4.003,2.947,5.457,4.248c0.222,0.114,0.32,0.352,0.541,0.471
	c0.045,0.151,0.225,0.181,0.271,0.334c0.286,0.187,0.452,0.49,0.74,0.677c0.325,0.328,0.578,0.723,0.943,1.009
	c0.858,1.232,1.928,2.254,2.293,3.976c0.11,0.255,0.11,0.968,0,1.215c-0.126,1.497-0.687,2.551-1.349,3.506
	c-0.096,0.019-0.114,0.114-0.202,0.133c-0.11,0.32-0.386,0.467-0.608,0.677c-0.076,0.014-0.101,0.077-0.134,0.135
	c0.074,0.138,0.072,0.142-0.068,0.064c-0.041,0.006-0.079,0.012-0.066,0.068c-1.702,0.839-4.396,0.686-6.81,0.81
	c-0.516,0-1.031,0-1.549,0c0,0.023,0,0.048,0,0.071c-0.785,0-1.571,0-2.359,0c0-0.023,0-0.048,0-0.071c-0.561,0-1.125,0-1.685,0
	c-0.336,0-0.674,0-1.012,0c-0.245,0-0.492,0-0.741,0c0-0.02,0-0.043,0-0.066c-0.271,0-0.54,0-0.81,0
	c-3.357-0.076-6.568-0.307-9.638-0.677c-0.014-0.096-0.163-0.062-0.271-0.066c-0.377-0.068-0.692-0.204-1.077-0.268
	c-0.387-0.306-0.642-1.128-0.878-1.886c-1.372-4.425-2.408-9.245-3.839-13.277c-0.057-0.334-0.124-0.649-0.276-0.881
	c-0.005-0.172-0.037-0.319-0.133-0.401c-0.534-1.871-1.144-3.661-1.887-5.328c-0.009-0.187-0.123-0.277-0.134-0.468
	c-0.032-0.086-0.071-0.152-0.133-0.204c-0.143-0.354-0.257-0.738-0.477-1.015c-0.009-0.048,0-0.129-0.066-0.129
	c-0.543-0.786-0.863-2.466-2.02-2.429c-0.8,0.023-1.062,1.219-1.352,2.091c-0.868,2.648-1.434,6.024-1.753,8.691
	c0,0.05,0,0.092,0,0.139c-0.038,0-0.076,0.01-0.066,0.067c0,0.067,0,0.132,0,0.2c-0.038,0.118,0.085,0.395-0.067,0.404
	c0.011,0.276,0.02,0.552-0.066,0.743c0,0.043,0,0.091,0,0.133c0,0.024,0,0.049,0,0.067c0,0.072,0,0.138,0,0.205
	c-0.077,0.009-0.072,0.104-0.067,0.2c0.038,0.219-0.048,0.313-0.067,0.472c0,0.022,0,0.042,0,0.065
	c-0.257,3.029-0.581,5.981-0.677,9.168c-0.152,0.096-0.019,0.473-0.066,0.677c-0.019,1.101-0.133,2.114-0.133,3.234
	c-0.224,0-0.448,0-0.676,0c-0.267,0.043-0.715-0.085-0.876,0.067c-0.491,0.019-0.819-0.12-1.348-0.067
	c-0.015-0.053-0.053-0.081-0.134-0.066c0-0.424,0-0.854,0-1.282c0.157-0.091,0.023-0.472,0.071-0.674c0-0.153,0-0.317,0-0.469
	c0-0.314,0-0.634,0-0.947c0.02,0,0.043,0,0.063,0c-0.043-1.053,0.09-2.291-0.063-3.233c0-0.024,0-0.044,0-0.068
	c0.152-0.096,0.02-0.471,0.063-0.675c-0.02,0-0.043,0-0.063,0c0-0.291,0-0.582,0-0.877c0-0.157,0-0.315,0-0.471
	c-0.048-0.205,0.086-0.582-0.071-0.678c-0.071-3.72-0.519-7.071-1.081-10.313c-0.01-0.074,0.014-0.188-0.067-0.198
	c-0.571-3.573-1.496-6.411-2.696-9.306c-1.247-3.005-2.814-5.92-2.828-9.907C26.778,18.774,26.778,18.037,26.894,17.765z"/>
</svg>
