<?xml version="1.0" encoding="utf-8"?>
<!-- Generator: Adobe Illustrator 15.0.0, SVG Export Plug-In . SVG Version: 6.00 Build 0)  -->
<!DOCTYPE svg PUBLIC "-//W3C//DTD SVG 1.1//EN" "http://www.w3.org/Graphics/SVG/1.1/DTD/svg11.dtd">
<svg version="1.1" id="Layer_2" xmlns="http://www.w3.org/2000/svg" xmlns:xlink="http://www.w3.org/1999/xlink" x="0px" y="0px"
	 width="103px" height="62px" viewBox="0 0 103 62" enable-background="new 0 0 103 62" xml:space="preserve">
<path fill="#989898" d="M76.571,25.632c-2.19,0-4.27,0.451-6.17,1.249l-0.071-0.163l-3.45-7.898l2.456-4.779h4.169
	c0,0,1.966-3.932-0.701-3.932H59.572c-2.669,0-0.701,3.932-0.701,3.932h5.97l-1.896,1.892H38.07l2.538-5.661h5.809V6.153h-6.931
	c-3.371,0-4.307,5.243-5.619,8.614c-0.518,1.337-1.89,6.081-3.358,11.323c-1.208-0.288-2.465-0.459-3.76-0.459
	c-8.896,0-16.109,7.213-16.109,16.107c0,8.898,7.213,16.108,16.109,16.108c8.899,0,16.109-7.21,16.109-16.108
	c0-6.631-4.01-12.32-9.733-14.794l0.079-0.171l1.181-2.63l18.166,19.75h8.073c1.056,7.875,7.781,13.953,15.948,13.953
	c8.898,0,16.105-7.21,16.105-16.108C92.677,32.845,85.47,25.636,76.571,25.632 M39.486,41.739
	c-0.015,7.035-5.702,12.725-12.738,12.737c-7.033-0.013-12.721-5.702-12.735-12.737c0.015-7.031,5.703-12.722,12.735-12.738
	c0.984,0.004,1.938,0.125,2.858,0.339l-0.083,0.301c-1.916,6.922-3.71,13.598-3.71,13.598l5.756-12.821l0.174-0.391
	C36.291,31.974,39.476,36.483,39.486,41.739 M36.007,20.528l0.393-0.868l0.84-0.069h25.563v1.406l-9.27,18.12L36.007,20.528z
	 M60.533,40.333h-3.91l8.427-16.854l2.929,4.655C63.843,30.751,60.98,35.192,60.533,40.333 M69.716,31.023l4.374,9.266
	l-10.175,0.063C64.348,36.429,66.554,33.052,69.716,31.023 M76.571,54.477c-6.298-0.013-11.503-4.579-12.537-10.582h13.802
	l-5.889-13.473l-0.196-0.451c1.487-0.614,3.11-0.964,4.82-0.97c7.036,0.017,12.724,5.707,12.734,12.738
	C89.295,48.774,83.607,54.464,76.571,54.477"/>
</svg>
