<?xml version="1.0" encoding="utf-8"?>
<!-- Generator: Adobe Illustrator 15.0.0, SVG Export Plug-In . SVG Version: 6.00 Build 0)  -->
<!DOCTYPE svg PUBLIC "-//W3C//DTD SVG 1.1//EN" "http://www.w3.org/Graphics/SVG/1.1/DTD/svg11.dtd">
<svg version="1.1" xmlns="http://www.w3.org/2000/svg" xmlns:xlink="http://www.w3.org/1999/xlink" x="0px" y="0px"
	 width="178.652px" height="178.652px" viewBox="0 0 178.652 178.652" enable-background="new 0 0 178.652 178.652"
	 xml:space="preserve">
<g id="Layer_9">
	<rect fill="#FFFFFF" width="178.652" height="178.652"/>
</g>
<g id="boei_copy">
	<path fill="#ED6166" d="M90.389,6.5c-12.35,0-24.2,3.007-34.888,8.502l14.801,35.05c6.152-3.167,12.976-4.899,20.087-4.899
		c5.393,0,10.7,1.017,15.809,3.024l11.729-36.417C109.048,8.27,99.804,6.5,90.389,6.5z"/>
	<path fill="#ED6166" d="M45.958,79.257L13.18,65.741c-7.828,23.167-6.51,47.807,2.033,68.919l31.923-15.773
		C42.223,106.747,41.462,92.579,45.958,79.257z"/>
	<path fill="#ED6166" d="M166.35,62.322c-0.589-1.552-1.222-3.073-1.881-4.575l-31.481,16.882c0.381,0.868,0.746,1.746,1.086,2.641
		c4.507,11.868,4.902,24.862,1.2,36.946l33.15,12.375C174.873,105.574,174.189,82.966,166.35,62.322z"/>
	<path fill="#FFFFFF" d="M121.56,13.292c-1.203-0.544-2.415-1.052-3.633-1.531l-11.729,36.417c0.708,0.278,1.413,0.574,2.113,0.89
		c10.903,4.925,19.578,13.944,24.677,25.562l31.481-16.882C155.607,37.542,140.521,21.857,121.56,13.292z"/>
	<path fill="#FFFFFF" d="M46.494,77.699c4.631-12.502,13.225-22.201,23.808-27.646l-14.801-35.05
		C37.098,24.465,22.151,41.327,14.1,63.064c-0.329,0.888-0.618,1.783-0.92,2.676l32.778,13.516
		C46.134,78.737,46.303,78.216,46.494,77.699z"/>
</g>
<g id="sproei">
	<path fill="#FDE700" stroke="#FFFFFF" stroke-width="2.1018" stroke-miterlimit="10" d="M81.615,94.656
		C72.343,82.115,6.117-16.438,17.831,43.666c0,0,5.248-18.472,15.456-6.319c10.207,12.155,52.892,62.87,52.892,62.87"/>
	<path fill="#F7931E" stroke="#FFFFFF" stroke-width="2.1018" stroke-miterlimit="10" d="M92.63,109.144
		c16.034,22.459-58.792-81.106-63.405-68.149c-2.294,6.439,7.264,39.27,10.447,22.522c3.191-16.752-0.478-12.288,10.667-3.929
		C50.339,59.587,80.137,91.65,92.63,109.144z"/>
	<path fill="#ED6166" stroke="#FFFFFF" stroke-width="2.1018" stroke-miterlimit="10" d="M97.767,116.122
		c-11.662-15.838-51.229-63.539-53.451-57.35c-2.223,6.188-2.778,24.458,1.929,16.738c4.707-7.724,0.465-14.096,13.504,0.544
		C72.789,90.698,97.767,116.122,97.767,116.122z"/>
	<path fill="#27A7CE" stroke="#FFFFFF" stroke-width="2.1018" stroke-miterlimit="10" d="M91.713,108.22
		C74.233,84.48,22.971,12.854,30.167,14.19c7.193,1.338,10.807,8.356,10.807,8.356s-4.991,0.599-1.682,8.258L91.713,108.22z"/>
	<path fill="#8E55A2" stroke="#FFFFFF" stroke-width="2.1018" stroke-miterlimit="10" d="M90.472,106.212
		c-0.273-0.426-0.545-0.853-0.815-1.276c-43.135-67.477-50.291-75.014-49.147-79.73c1.153-4.749,6.729-0.48,10.562,5.928
		c3.831,6.407,1.561,2.868-2.133,1.916c-3.688-0.955,1.836,5.645,9.496,18.984"/>
	<path fill="#50BA7F" stroke="#FFFFFF" stroke-width="2.1018" stroke-miterlimit="10" d="M97.481,114.45
		c-0.536-0.699-1.09-1.428-1.667-2.19C72.375,81.191,20.484,3.671,15.37,11.513c-3.927,6.023-0.632,15.072-0.632,15.072
		s5.372-11.581,10.076-6.161L97.481,114.45z"/>
	<path fill-rule="evenodd" clip-rule="evenodd" fill="#ED6166" stroke="#FFFFFF" stroke-width="2.1018" stroke-miterlimit="10" d="
		M46.206,104.885c-0.511-1.029-0.175-2.321,0.758-2.888c0.93-0.566,2.102-0.194,2.614,0.836c0.512,1.026,0.174,2.319-0.758,2.885
		C47.89,106.287,46.719,105.913,46.206,104.885z"/>
	<path fill-rule="evenodd" clip-rule="evenodd" fill="#ED6166" stroke="#FFFFFF" stroke-width="2.1018" stroke-miterlimit="10" d="
		M24.923,105.772c-0.513-1.028-0.175-2.319,0.754-2.885c0.933-0.567,2.103-0.195,2.617,0.834c0.514,1.027,0.173,2.319-0.757,2.887
		C26.605,107.175,25.435,106.8,24.923,105.772z"/>
	<path fill-rule="evenodd" clip-rule="evenodd" fill="#ED6166" stroke="#FFFFFF" stroke-width="2.1018" stroke-miterlimit="10" d="
		M38.313,83.946c-0.512-1.031-0.175-2.322,0.758-2.89c0.928-0.566,2.102-0.194,2.614,0.835c0.513,1.027,0.174,2.32-0.757,2.885
		C39.998,85.347,38.828,84.973,38.313,83.946z"/>
	<path fill-rule="evenodd" clip-rule="evenodd" fill="#ED6166" stroke="#FFFFFF" stroke-width="2.1018" stroke-miterlimit="10" d="
		M48.867,87.563c-0.516-1.029-0.176-2.32,0.752-2.886c0.932-0.568,2.104-0.196,2.618,0.833c0.513,1.027,0.173,2.32-0.759,2.887
		C50.549,88.963,49.378,88.591,48.867,87.563z"/>
	<path fill-rule="evenodd" clip-rule="evenodd" fill="#ED6166" stroke="#FFFFFF" stroke-width="2.1018" stroke-miterlimit="10" d="
		M51.762,78.99c-0.514-1.028-0.176-2.321,0.755-2.888c0.93-0.566,2.102-0.194,2.615,0.834c0.513,1.028,0.173,2.32-0.757,2.887
		C53.445,80.39,52.271,80.019,51.762,78.99z"/>
	<path fill-rule="evenodd" clip-rule="evenodd" fill="#27A7CE" stroke="#FFFFFF" stroke-width="2.1018" stroke-miterlimit="10" d="
		M45.004,18.884c-0.511-1.028-0.174-2.321,0.757-2.888c0.933-0.567,2.101-0.195,2.616,0.834c0.512,1.027,0.174,2.32-0.758,2.887
		C46.689,20.285,45.519,19.912,45.004,18.884z"/>
	<path fill-rule="evenodd" clip-rule="evenodd" fill="#27A7CE" stroke="#FFFFFF" stroke-width="2.1018" stroke-miterlimit="10" d="
		M76.015,47.596c-0.514-1.029-0.175-2.323,0.754-2.888c0.935-0.568,2.104-0.195,2.618,0.833c0.514,1.029,0.174,2.32-0.758,2.888
		C77.698,48.995,76.529,48.623,76.015,47.596z"/>
	<path fill-rule="evenodd" clip-rule="evenodd" fill="#27A7CE" stroke="#FFFFFF" stroke-width="2.1018" stroke-miterlimit="10" d="
		M11.558,48.516c-0.513-1.029-0.176-2.321,0.755-2.887c0.932-0.567,2.102-0.194,2.615,0.835c0.514,1.027,0.174,2.318-0.756,2.886
		C13.24,49.916,12.072,49.544,11.558,48.516z"/>
	<path fill-rule="evenodd" clip-rule="evenodd" fill="#FDE700" stroke="#FFFFFF" stroke-width="2.1018" stroke-miterlimit="10" d="
		M34.766,109.427c-0.514-1.028-0.176-2.321,0.756-2.888c0.932-0.567,2.101-0.194,2.615,0.834c0.512,1.027,0.175,2.319-0.757,2.888
		C36.449,110.828,35.277,110.455,34.766,109.427z"/>
	<path fill-rule="evenodd" clip-rule="evenodd" fill="#FDE700" stroke="#FFFFFF" stroke-width="2.1018" stroke-miterlimit="10" d="
		M12.105,112.977c-0.517-1.03-0.178-2.321,0.752-2.891c0.933-0.565,2.104-0.19,2.618,0.837c0.511,1.025,0.173,2.318-0.758,2.887
		C13.785,114.375,12.615,114.002,12.105,112.977z"/>
	<path fill-rule="evenodd" clip-rule="evenodd" fill="#FDE700" stroke="#FFFFFF" stroke-width="2.1018" stroke-miterlimit="10" d="
		M30.192,80.329c-0.514-1.032-0.176-2.321,0.757-2.889c0.93-0.567,2.1-0.195,2.615,0.834c0.514,1.027,0.176,2.319-0.758,2.887
		C31.875,81.729,30.705,81.355,30.192,80.329z"/>
	<path fill-rule="evenodd" clip-rule="evenodd" fill="#FDE700" stroke="#FFFFFF" stroke-width="2.1018" stroke-miterlimit="10" d="
		M25.224,57.89c-0.513-1.03-0.175-2.32,0.759-2.889c0.928-0.565,2.1-0.193,2.611,0.836c0.515,1.027,0.176,2.322-0.755,2.887
		C26.907,59.291,25.736,58.917,25.224,57.89z"/>
	<path fill-rule="evenodd" clip-rule="evenodd" fill="#FDE700" stroke="#FFFFFF" stroke-width="2.1018" stroke-miterlimit="10" d="
		M21.268,93.227c-0.513-1.029-0.176-2.322,0.756-2.887c0.932-0.567,2.103-0.195,2.615,0.834c0.514,1.026,0.174,2.32-0.758,2.886
		C22.951,94.63,21.779,94.253,21.268,93.227z"/>
	<path fill-rule="evenodd" clip-rule="evenodd" fill="#FDE700" stroke="#FFFFFF" stroke-width="2.1018" stroke-miterlimit="10" d="
		M66.581,103.58c-0.515-1.03-0.175-2.32,0.753-2.887c0.934-0.567,2.104-0.195,2.618,0.833c0.513,1.029,0.175,2.322-0.759,2.89
		C68.264,104.98,67.096,104.605,66.581,103.58z"/>
	<path fill-rule="evenodd" clip-rule="evenodd" fill="#FDE700" stroke="#FFFFFF" stroke-width="2.1018" stroke-miterlimit="10" d="
		M7.549,77.37c-0.514-1.029-0.176-2.321,0.756-2.889c0.932-0.566,2.103-0.193,2.615,0.835c0.514,1.026,0.176,2.321-0.756,2.888
		C9.233,78.771,8.063,78.396,7.549,77.37z"/>
	<path fill-rule="evenodd" clip-rule="evenodd" fill="#FDE700" stroke="#FFFFFF" stroke-width="2.1018" stroke-miterlimit="10" d="
		M19.45,51.307c-0.513-1.028-0.177-2.319,0.757-2.887c0.929-0.567,2.101-0.195,2.612,0.835c0.515,1.026,0.175,2.32-0.754,2.887
		C21.133,52.708,19.963,52.334,19.45,51.307z"/>
	<path fill-rule="evenodd" clip-rule="evenodd" fill="#F7931E" stroke="#FFFFFF" stroke-width="2.1018" stroke-miterlimit="10" d="
		M35.633,92.513c-0.514-1.029-0.177-2.321,0.756-2.888c0.929-0.567,2.102-0.194,2.615,0.834c0.514,1.027,0.176,2.321-0.758,2.888
		C37.316,93.915,36.146,93.54,35.633,92.513z"/>
	<path fill-rule="evenodd" clip-rule="evenodd" fill="#F7931E" stroke="#FFFFFF" stroke-width="2.1018" stroke-miterlimit="10" d="
		M29.594,69.219c-0.514-1.028-0.174-2.32,0.754-2.886c0.935-0.568,2.104-0.197,2.617,0.832c0.514,1.028,0.176,2.322-0.758,2.889
		C31.277,70.621,30.107,70.246,29.594,69.219z"/>
	<path fill-rule="evenodd" clip-rule="evenodd" fill="#F7931E" stroke="#FFFFFF" stroke-width="2.1018" stroke-miterlimit="10" d="
		M57.681,47.48c-0.514-1.027-0.175-2.321,0.755-2.889c0.934-0.567,2.102-0.193,2.615,0.834c0.515,1.028,0.176,2.322-0.756,2.889
		C59.365,48.88,58.193,48.507,57.681,47.48z"/>
	<path fill-rule="evenodd" clip-rule="evenodd" fill="#8E55A2" stroke="#FFFFFF" stroke-width="2.1018" stroke-miterlimit="10" d="
		M66.682,55.049c-0.515-1.028-0.175-2.322,0.758-2.891c0.93-0.565,2.1-0.191,2.612,0.836c0.516,1.029,0.177,2.321-0.754,2.886
		C68.366,56.451,67.195,56.077,66.682,55.049z"/>
	<path fill-rule="evenodd" clip-rule="evenodd" fill="#8E55A2" stroke="#FFFFFF" stroke-width="2.1018" stroke-miterlimit="10" d="
		M67.17,46.329c-0.511-1.027-0.172-2.32,0.759-2.889c0.929-0.566,2.102-0.192,2.614,0.836c0.514,1.029,0.175,2.322-0.755,2.887
		C68.857,47.731,67.685,47.359,67.17,46.329z"/>
	<path fill-rule="evenodd" clip-rule="evenodd" fill="#8E55A2" stroke="#FFFFFF" stroke-width="2.1018" stroke-miterlimit="10" d="
		M55.943,38.789c-0.513-1.027-0.174-2.321,0.76-2.889c0.928-0.566,2.102-0.192,2.611,0.836c0.516,1.029,0.176,2.323-0.753,2.887
		C57.629,40.192,56.458,39.818,55.943,38.789z"/>
	<path fill-rule="evenodd" clip-rule="evenodd" fill="#50BA7F" stroke="#FFFFFF" stroke-width="2.1018" stroke-miterlimit="10" d="
		M58.787,89.921c-0.514-1.026-0.174-2.321,0.757-2.888c0.931-0.567,2.101-0.192,2.616,0.836c0.512,1.026,0.174,2.32-0.758,2.887
		C60.472,91.324,59.303,90.949,58.787,89.921z"/>
	<path fill-rule="evenodd" clip-rule="evenodd" fill="#50BA7F" stroke="#FFFFFF" stroke-width="2.1018" stroke-miterlimit="10" d="
		M17.744,76.558c-0.514-1.027-0.175-2.321,0.756-2.889c0.931-0.567,2.102-0.191,2.615,0.835c0.512,1.026,0.176,2.32-0.756,2.887
		C19.428,77.958,18.256,77.584,17.744,76.558z"/>
	<path fill-rule="evenodd" clip-rule="evenodd" fill="#50BA7F" stroke="#FFFFFF" stroke-width="2.1018" stroke-miterlimit="10" d="
		M6.584,95.775C6.07,94.747,6.41,93.453,7.34,92.887c0.932-0.567,2.103-0.193,2.615,0.833c0.512,1.028,0.176,2.322-0.756,2.89
		C8.268,97.178,7.098,96.802,6.584,95.775z"/>
	<path fill-rule="evenodd" clip-rule="evenodd" fill="#50BA7F" stroke="#FFFFFF" stroke-width="2.1018" stroke-miterlimit="10" d="
		M10.035,40.296c-0.514-1.027-0.176-2.319,0.754-2.888c0.933-0.566,2.102-0.192,2.615,0.834c0.514,1.027,0.176,2.322-0.756,2.888
		C11.718,41.7,10.547,41.325,10.035,40.296z"/>
	<path fill-rule="evenodd" clip-rule="evenodd" fill="#50BA7F" stroke="#FFFFFF" stroke-width="2.1018" stroke-miterlimit="10" d="
		M23.646,41.469c-0.516-1.027-0.176-2.322,0.756-2.89c0.93-0.565,2.103-0.192,2.613,0.835c0.514,1.026,0.176,2.322-0.754,2.888
		C25.328,42.87,24.158,42.495,23.646,41.469z"/>
	<path fill-rule="evenodd" clip-rule="evenodd" fill="#50BA7F" stroke="#FFFFFF" stroke-width="2.1018" stroke-miterlimit="10" d="
		M7.877,64.964c-0.513-1.025-0.174-2.32,0.758-2.886c0.929-0.567,2.102-0.193,2.613,0.834c0.514,1.028,0.176,2.322-0.756,2.888
		C9.563,66.368,8.392,65.994,7.877,64.964z"/>
	<path fill-rule="evenodd" clip-rule="evenodd" fill="#50BA7F" stroke="#FFFFFF" stroke-width="2.1018" stroke-miterlimit="10" d="
		M54.059,25.373c-0.513-1.027-0.176-2.322,0.756-2.89c0.932-0.565,2.102-0.19,2.615,0.835c0.514,1.027,0.176,2.323-0.756,2.889
		C55.743,26.773,54.57,26.398,54.059,25.373z"/>
	<path fill-rule="evenodd" clip-rule="evenodd" fill="#50BA7F" stroke="#FFFFFF" stroke-width="2.1018" stroke-miterlimit="10" d="
		M63.588,34.626c-0.514-1.026-0.176-2.32,0.757-2.887c0.93-0.567,2.101-0.192,2.614,0.833c0.514,1.028,0.176,2.323-0.756,2.891
		C65.271,36.031,64.101,35.654,63.588,34.626z"/>
	<path fill-rule="evenodd" clip-rule="evenodd" fill="#50BA7F" stroke="#FFFFFF" stroke-width="2.1018" stroke-miterlimit="10" d="
		M37.203,122.328c-0.512-1.026-0.174-2.322,0.758-2.888c0.93-0.567,2.102-0.193,2.614,0.834c0.513,1.026,0.175,2.321-0.757,2.889
		C38.889,123.73,37.717,123.354,37.203,122.328z"/>
</g>
<g id="sproei_copy">
	<path fill="#FDE700" d="M81.615,94.656C72.343,82.115,6.117-16.438,17.831,43.666c0,0,5.248-18.472,15.456-6.319
		c10.207,12.155,52.892,62.87,52.892,62.87"/>
	<path fill="#F7931E" d="M92.63,109.144c16.034,22.459-58.792-81.106-63.405-68.149c-2.294,6.439,7.264,39.27,10.447,22.522
		c3.191-16.752-0.478-12.288,10.667-3.929C50.339,59.587,80.137,91.65,92.63,109.144z"/>
	<path fill="#ED6166" d="M97.767,116.122c-11.662-15.838-51.229-63.539-53.451-57.35c-2.223,6.188-2.778,24.458,1.929,16.738
		c4.707-7.724,0.465-14.096,13.504,0.544C72.789,90.698,97.767,116.122,97.767,116.122z"/>
	<path fill="#27A7CE" d="M91.713,108.22C74.233,84.48,22.971,12.854,30.167,14.19c7.193,1.338,10.807,8.356,10.807,8.356
		s-4.991,0.599-1.682,8.258L91.713,108.22z"/>
	<path fill="#8E55A2" d="M90.472,106.212c-0.273-0.426-0.545-0.853-0.815-1.276c-43.135-67.477-50.291-75.014-49.147-79.73
		c1.153-4.749,6.729-0.48,10.562,5.928c3.831,6.407,1.561,2.868-2.133,1.916c-3.688-0.955,1.836,5.645,9.496,18.984"/>
	<path fill="#50BA7F" d="M97.481,114.45c-0.536-0.699-1.09-1.428-1.667-2.19C72.375,81.191,20.484,3.671,15.37,11.513
		c-3.927,6.023-0.632,15.072-0.632,15.072s5.372-11.581,10.076-6.161L97.481,114.45z"/>
	<path fill-rule="evenodd" clip-rule="evenodd" fill="#ED6166" d="M46.206,104.885c-0.511-1.029-0.175-2.321,0.758-2.888
		c0.93-0.566,2.102-0.194,2.614,0.836c0.512,1.026,0.174,2.319-0.758,2.885C47.89,106.287,46.719,105.913,46.206,104.885z"/>
	<path fill-rule="evenodd" clip-rule="evenodd" fill="#ED6166" d="M24.923,105.772c-0.513-1.028-0.175-2.319,0.754-2.885
		c0.933-0.567,2.103-0.195,2.617,0.834c0.514,1.027,0.173,2.319-0.757,2.887C26.605,107.175,25.435,106.8,24.923,105.772z"/>
	<path fill-rule="evenodd" clip-rule="evenodd" fill="#ED6166" d="M38.313,83.946c-0.512-1.031-0.175-2.322,0.758-2.89
		c0.928-0.566,2.102-0.194,2.614,0.835c0.513,1.027,0.174,2.32-0.757,2.885C39.998,85.347,38.828,84.973,38.313,83.946z"/>
	<path fill-rule="evenodd" clip-rule="evenodd" fill="#ED6166" d="M48.867,87.563c-0.516-1.029-0.176-2.32,0.752-2.886
		c0.932-0.568,2.104-0.196,2.618,0.833c0.513,1.027,0.173,2.32-0.759,2.887C50.549,88.963,49.378,88.591,48.867,87.563z"/>
	<path fill-rule="evenodd" clip-rule="evenodd" fill="#ED6166" d="M51.762,78.99c-0.514-1.028-0.176-2.321,0.755-2.888
		c0.93-0.566,2.102-0.194,2.615,0.834c0.513,1.028,0.173,2.32-0.757,2.887C53.445,80.39,52.271,80.019,51.762,78.99z"/>
	<path fill-rule="evenodd" clip-rule="evenodd" fill="#27A7CE" d="M45.004,18.884c-0.511-1.028-0.174-2.321,0.757-2.888
		c0.933-0.567,2.101-0.195,2.616,0.834c0.512,1.027,0.174,2.32-0.758,2.887C46.689,20.285,45.519,19.912,45.004,18.884z"/>
	<path fill-rule="evenodd" clip-rule="evenodd" fill="#27A7CE" d="M76.015,47.596c-0.514-1.029-0.175-2.323,0.754-2.888
		c0.935-0.568,2.104-0.195,2.618,0.833c0.514,1.029,0.174,2.32-0.758,2.888C77.698,48.995,76.529,48.623,76.015,47.596z"/>
	<path fill-rule="evenodd" clip-rule="evenodd" fill="#27A7CE" d="M11.558,48.516c-0.513-1.029-0.176-2.321,0.755-2.887
		c0.932-0.567,2.102-0.194,2.615,0.835c0.514,1.027,0.174,2.318-0.756,2.886C13.24,49.916,12.072,49.544,11.558,48.516z"/>
	<path fill-rule="evenodd" clip-rule="evenodd" fill="#FDE700" d="M34.766,109.427c-0.514-1.028-0.176-2.321,0.756-2.888
		c0.932-0.567,2.101-0.194,2.615,0.834c0.512,1.027,0.175,2.319-0.757,2.888C36.449,110.828,35.277,110.455,34.766,109.427z"/>
	<path fill-rule="evenodd" clip-rule="evenodd" fill="#FDE700" d="M12.105,112.977c-0.517-1.03-0.178-2.321,0.752-2.891
		c0.933-0.565,2.104-0.19,2.618,0.837c0.511,1.025,0.173,2.318-0.758,2.887C13.785,114.375,12.615,114.002,12.105,112.977z"/>
	<path fill-rule="evenodd" clip-rule="evenodd" fill="#FDE700" d="M30.192,80.329c-0.514-1.032-0.176-2.321,0.757-2.889
		c0.93-0.567,2.1-0.195,2.615,0.834c0.514,1.027,0.176,2.319-0.758,2.887C31.875,81.729,30.705,81.355,30.192,80.329z"/>
	<path fill-rule="evenodd" clip-rule="evenodd" fill="#FDE700" d="M25.224,57.89c-0.513-1.03-0.175-2.32,0.759-2.889
		c0.928-0.565,2.1-0.193,2.611,0.836c0.515,1.027,0.176,2.322-0.755,2.887C26.907,59.291,25.736,58.917,25.224,57.89z"/>
	<path fill-rule="evenodd" clip-rule="evenodd" fill="#FDE700" d="M21.268,93.227c-0.513-1.029-0.176-2.322,0.756-2.887
		c0.932-0.567,2.103-0.195,2.615,0.834c0.514,1.026,0.174,2.32-0.758,2.886C22.951,94.63,21.779,94.253,21.268,93.227z"/>
	<path fill-rule="evenodd" clip-rule="evenodd" fill="#FDE700" d="M66.581,103.58c-0.515-1.03-0.175-2.32,0.753-2.887
		c0.934-0.567,2.104-0.195,2.618,0.833c0.513,1.029,0.175,2.322-0.759,2.89C68.264,104.98,67.096,104.605,66.581,103.58z"/>
	<path fill-rule="evenodd" clip-rule="evenodd" fill="#FDE700" d="M7.549,77.37c-0.514-1.029-0.176-2.321,0.756-2.889
		c0.932-0.566,2.103-0.193,2.615,0.835c0.514,1.026,0.176,2.321-0.756,2.888C9.233,78.771,8.063,78.396,7.549,77.37z"/>
	<path fill-rule="evenodd" clip-rule="evenodd" fill="#FDE700" d="M19.45,51.307c-0.513-1.028-0.177-2.319,0.757-2.887
		c0.929-0.567,2.101-0.195,2.612,0.835c0.515,1.026,0.175,2.32-0.754,2.887C21.133,52.708,19.963,52.334,19.45,51.307z"/>
	<path fill-rule="evenodd" clip-rule="evenodd" fill="#F7931E" d="M35.633,92.513c-0.514-1.029-0.177-2.321,0.756-2.888
		c0.929-0.567,2.102-0.194,2.615,0.834c0.514,1.027,0.176,2.321-0.758,2.888C37.316,93.915,36.146,93.54,35.633,92.513z"/>
	<path fill-rule="evenodd" clip-rule="evenodd" fill="#F7931E" d="M29.594,69.219c-0.514-1.028-0.174-2.32,0.754-2.886
		c0.935-0.568,2.104-0.197,2.617,0.832c0.514,1.028,0.176,2.322-0.758,2.889C31.277,70.621,30.107,70.246,29.594,69.219z"/>
	<path fill-rule="evenodd" clip-rule="evenodd" fill="#F7931E" d="M57.681,47.48c-0.514-1.027-0.175-2.321,0.755-2.889
		c0.934-0.567,2.102-0.193,2.615,0.834c0.515,1.028,0.176,2.322-0.756,2.889C59.365,48.88,58.193,48.507,57.681,47.48z"/>
	<path fill-rule="evenodd" clip-rule="evenodd" fill="#8E55A2" d="M66.682,55.049c-0.515-1.028-0.175-2.322,0.758-2.891
		c0.93-0.565,2.1-0.191,2.612,0.836c0.516,1.029,0.177,2.321-0.754,2.886C68.366,56.451,67.195,56.077,66.682,55.049z"/>
	<path fill-rule="evenodd" clip-rule="evenodd" fill="#8E55A2" d="M67.17,46.329c-0.511-1.027-0.172-2.32,0.759-2.889
		c0.929-0.566,2.102-0.192,2.614,0.836c0.514,1.029,0.175,2.322-0.755,2.887C68.857,47.731,67.685,47.359,67.17,46.329z"/>
	<path fill-rule="evenodd" clip-rule="evenodd" fill="#8E55A2" d="M55.943,38.789c-0.513-1.027-0.174-2.321,0.76-2.889
		c0.928-0.566,2.102-0.192,2.611,0.836c0.516,1.029,0.176,2.323-0.753,2.887C57.629,40.192,56.458,39.818,55.943,38.789z"/>
	<path fill-rule="evenodd" clip-rule="evenodd" fill="#50BA7F" d="M58.787,89.921c-0.514-1.026-0.174-2.321,0.757-2.888
		c0.931-0.567,2.101-0.192,2.616,0.836c0.512,1.026,0.174,2.32-0.758,2.887C60.472,91.324,59.303,90.949,58.787,89.921z"/>
	<path fill-rule="evenodd" clip-rule="evenodd" fill="#50BA7F" d="M17.744,76.558c-0.514-1.027-0.175-2.321,0.756-2.889
		c0.931-0.567,2.102-0.191,2.615,0.835c0.512,1.026,0.176,2.32-0.756,2.887C19.428,77.958,18.256,77.584,17.744,76.558z"/>
	<path fill-rule="evenodd" clip-rule="evenodd" fill="#50BA7F" d="M6.584,95.775C6.07,94.747,6.41,93.453,7.34,92.887
		c0.932-0.567,2.103-0.193,2.615,0.833c0.512,1.028,0.176,2.322-0.756,2.89C8.268,97.178,7.098,96.802,6.584,95.775z"/>
	<path fill-rule="evenodd" clip-rule="evenodd" fill="#50BA7F" d="M10.035,40.296c-0.514-1.027-0.176-2.319,0.754-2.888
		c0.933-0.566,2.102-0.192,2.615,0.834c0.514,1.027,0.176,2.322-0.756,2.888C11.718,41.7,10.547,41.325,10.035,40.296z"/>
	<path fill-rule="evenodd" clip-rule="evenodd" fill="#50BA7F" d="M23.646,41.469c-0.516-1.027-0.176-2.322,0.756-2.89
		c0.93-0.565,2.103-0.192,2.613,0.835c0.514,1.026,0.176,2.322-0.754,2.888C25.328,42.87,24.158,42.495,23.646,41.469z"/>
	<path fill-rule="evenodd" clip-rule="evenodd" fill="#50BA7F" d="M7.877,64.964c-0.513-1.025-0.174-2.32,0.758-2.886
		c0.929-0.567,2.102-0.193,2.613,0.834c0.514,1.028,0.176,2.322-0.756,2.888C9.563,66.368,8.392,65.994,7.877,64.964z"/>
	<path fill-rule="evenodd" clip-rule="evenodd" fill="#50BA7F" d="M54.059,25.373c-0.513-1.027-0.176-2.322,0.756-2.89
		c0.932-0.565,2.102-0.19,2.615,0.835c0.514,1.027,0.176,2.323-0.756,2.889C55.743,26.773,54.57,26.398,54.059,25.373z"/>
	<path fill-rule="evenodd" clip-rule="evenodd" fill="#50BA7F" d="M63.588,34.626c-0.514-1.026-0.176-2.32,0.757-2.887
		c0.93-0.567,2.101-0.192,2.614,0.833c0.514,1.028,0.176,2.323-0.756,2.891C65.271,36.031,64.101,35.654,63.588,34.626z"/>
	<path fill-rule="evenodd" clip-rule="evenodd" fill="#50BA7F" d="M37.203,122.328c-0.512-1.026-0.174-2.322,0.758-2.888
		c0.93-0.567,2.102-0.193,2.614,0.834c0.513,1.026,0.175,2.321-0.757,2.889C38.889,123.73,37.717,123.354,37.203,122.328z"/>
</g>
<g id="boot_wit">
	<path fill-rule="evenodd" clip-rule="evenodd" fill="none" stroke="#FFFFFF" stroke-width="6.3053" stroke-miterlimit="10" d="
		M106.923,44.06c-1.992-3.356-3.492-1.697-8.176-2.083c-0.467-5.854,0.432-11.358,0.107-17.365c-0.525,0-1.09,0-1.68,0
		c-2.121,0-4.244,0-6.366,0c-0.292,0-0.58,0-0.872,0c-2.122,0-4.245,0-6.368,0c-0.586,0-1.152,0-1.677,0
		c-0.327,6.007,0.57,11.512,0.104,17.365c-4.68,0.387-6.184-1.273-8.176,2.083c-0.482,1.202-0.277-0.076-0.313,1.62
		c7.104,0,11.821,0,16.43,0c0.292,0,0.58,0,0.872,0c4.608,0,9.325,0,16.431,0C107.202,43.984,107.407,45.262,106.923,44.06z"/>
	<path fill-rule="evenodd" clip-rule="evenodd" fill="none" stroke="#FFFFFF" stroke-width="6.3053" stroke-miterlimit="10" d="
		M129.358,84.702c-13.203-6.603-26.031-13.623-38.996-20.491C77.396,71.078,64.57,78.099,51.367,84.702c0-4.758,0-9.865,0-15.976
		c0-7.503-1.488-16.442,3.46-17.712c4.84-1.24,12.468,0,18.868,0c13.094,0,23.515,0,37.421,0c5.412,0,15.479-0.902,17.297,1.39
		c1.957,2.464,0.945,10.92,0.945,15.627C129.358,74.649,129.358,78.99,129.358,84.702z"/>
	<path fill-rule="evenodd" clip-rule="evenodd" fill="none" stroke="#FFFFFF" stroke-width="6.3053" stroke-miterlimit="10" d="
		M90.362,69.074c19.264,10.213,38.467,20.497,57.865,30.562c-6.244,20.308-12.516,40.591-18.869,60.777
		c-16.375-1.629-29.148-11.743-46.228-13.197c-13.565-1.153-23.668,3.177-33.65,7.641c-5.458-18.63-11.41-36.714-16.981-55.22
		C51.896,89.571,71.099,79.287,90.362,69.074z"/>
</g>
<g id="boot_copy">
	<path fill-rule="evenodd" clip-rule="evenodd" fill="#27A7CE" d="M106.923,44.06c-1.992-3.356-3.492-1.697-8.176-2.083
		c-0.467-5.854,0.432-11.358,0.107-17.365c-0.525,0-1.09,0-1.68,0c-2.121,0-4.244,0-6.366,0c-0.292,0-0.58,0-0.872,0
		c-2.122,0-4.245,0-6.368,0c-0.586,0-1.152,0-1.677,0c-0.327,6.007,0.57,11.512,0.104,17.365c-4.68,0.387-6.184-1.273-8.176,2.083
		c-0.482,1.202-0.277-0.076-0.313,1.62c7.104,0,11.821,0,16.43,0c0.292,0,0.58,0,0.872,0c4.608,0,9.325,0,16.431,0
		C107.202,43.984,107.407,45.262,106.923,44.06z"/>
	<path fill-rule="evenodd" clip-rule="evenodd" fill="#27A7CE" d="M129.358,84.702c-13.203-6.603-26.031-13.623-38.996-20.491
		C77.396,71.078,64.57,78.099,51.367,84.702c0-4.758,0-9.865,0-15.976c0-7.503-1.488-16.442,3.46-17.712
		c4.84-1.24,12.468,0,18.868,0c13.094,0,23.515,0,37.421,0c5.412,0,15.479-0.902,17.297,1.39c1.957,2.464,0.945,10.92,0.945,15.627
		C129.358,74.649,129.358,78.99,129.358,84.702z"/>
	<path fill-rule="evenodd" clip-rule="evenodd" fill="#27A7CE" d="M90.362,69.074c19.264,10.213,38.467,20.497,57.865,30.562
		c-6.244,20.308-12.516,40.591-18.869,60.777c-16.375-1.629-29.148-11.743-46.228-13.197c-13.565-1.153-23.668,3.177-33.65,7.641
		c-5.458-18.63-11.41-36.714-16.981-55.22C51.896,89.571,71.099,79.287,90.362,69.074z"/>
</g>
<g id="A_x26_P">
	<g>
		<path fill="#FFFFFF" d="M52.891,118.083l-0.049,3.669l-4.484,1.79l0.238-24.724l5.621-2.243l14.619,18.793l-6.603,2.635
			l-2.152-2.792L52.891,118.083z M57.533,111.959l-4.471-5.775l-0.096,7.598L57.533,111.959z"/>
	</g>
	<g>
		<path fill="#FFFFFF" d="M141.15,110.667c-1.33,4.677-4.5,6.146-9.511,4.407l-4.118-1.429l-2.361,8.3l-6.269-2.174l6.286-22.098
			l10.9,3.781c2.104,0.729,3.646,1.844,4.628,3.342C141.689,106.294,141.837,108.251,141.15,110.667z M135.076,108.457
			c0.26-0.994,0.219-1.827-0.125-2.497c-0.343-0.67-0.946-1.156-1.813-1.456l-2.745-0.953l-1.821,6.401l2.62,0.909
			c0.992,0.344,1.795,0.355,2.408,0.034C134.214,110.575,134.705,109.762,135.076,108.457z"/>
	</g>
</g>
<g id="hartjes">
	<path fill-rule="evenodd" clip-rule="evenodd" fill="#ED6166" stroke="#FFFFFF" stroke-width="3.1527" stroke-miterlimit="10" d="
		M73.394,133.361c1.876-0.462,4.118,0.188,5.562,0.796c2.826,1.701,4.729,4.35,6.083,7.577c-0.003,0.064-0.005,0.13-0.007,0.198
		c0.58,2.761,0.605,5.523,0.112,8.554c0.026,0.718-0.361,0.947-0.408,1.576c-5.074,10.667-13.614,17.26-22.128,23.876
		c-0.549-0.201-0.978-0.532-1.415-0.848c-0.062-0.002-0.121-0.005-0.18-0.007c-3.806-3.499-7.31-7.213-10.841-11.122
		c-2.782-3.085-5.281-5.724-7.109-9.405c-0.497-1.001-1.554-3.942-1.701-3.442c-0.264-0.045-0.149-0.484-0.156-0.801
		c-0.421-3.396-0.47-6.869,0.471-9.926c0.002-0.067,0.004-0.134,0.005-0.198c1.763-3.269,4.259-5.67,7.243-7.5
		c0.061,0.002,0.119,0.004,0.18,0.007c0.99,0.069,1.389-0.557,2.531-0.31c0.059,0.002,0.119,0.005,0.178,0.007
		c5.636,1.36,8.412,5.675,11.236,9.948c3.61-2.734,5.738-7.216,10.167-8.986C73.275,133.357,73.336,133.359,73.394,133.361z"/>
	<path fill-rule="evenodd" clip-rule="evenodd" fill="#ED6166" stroke="#FFFFFF" stroke-width="1.7518" stroke-miterlimit="10" d="
		M149.619,138.124c1.062-0.118,2.26,0.403,3.02,0.845c1.458,1.145,2.35,2.745,2.902,4.624c-0.005,0.035-0.01,0.072-0.015,0.108
		c0.155,1.565,0.004,3.092-0.45,4.729c-0.028,0.398-0.256,0.495-0.319,0.839c-3.438,5.516-8.544,8.529-13.637,11.558
		c-0.29-0.149-0.508-0.363-0.729-0.569c-0.034-0.008-0.067-0.013-0.1-0.018c-1.89-2.209-3.602-4.513-5.315-6.928
		c-1.351-1.905-2.571-3.543-3.359-5.707c-0.215-0.589-0.621-2.288-0.732-2.024c-0.144-0.044-0.054-0.278-0.039-0.454
		c-0.028-1.903,0.153-3.822,0.854-5.44c0.005-0.037,0.011-0.074,0.015-0.108c1.168-1.676,2.688-2.818,4.445-3.611
		c0.032,0.007,0.065,0.011,0.098,0.019c0.542,0.11,0.8-0.208,1.415,0.013c0.032,0.005,0.065,0.012,0.098,0.018
		c3.027,1.161,4.302,3.744,5.604,6.308c2.155-1.245,3.598-3.562,6.146-4.216C149.554,138.113,149.587,138.118,149.619,138.124z"/>
	<path fill-rule="evenodd" clip-rule="evenodd" fill="#ED6166" stroke="#FFFFFF" stroke-width="1.7518" stroke-miterlimit="10" d="
		M41.209,136.191c0.969-0.493,2.256-0.432,3.104-0.289c1.717,0.558,3.031,1.75,4.109,3.327c0.006,0.035,0.012,0.072,0.018,0.108
		c0.609,1.423,0.916,2.92,0.971,4.633c0.09,0.386-0.097,0.56-0.055,0.907c-1.622,6.451-5.561,11.139-9.48,15.836
		c-0.318-0.037-0.588-0.162-0.858-0.276c-0.034,0.006-0.067,0.013-0.099,0.02c-2.439-1.409-4.737-2.969-7.07-4.636
		c-1.84-1.315-3.477-2.424-4.86-4.187c-0.377-0.479-1.263-1.94-1.29-1.65c-0.148,0.011-0.133-0.243-0.171-0.415
		c-0.589-1.789-0.983-3.669-0.798-5.45c-0.006-0.038-0.012-0.073-0.019-0.108c0.61-2.005,1.71-3.633,3.138-5.014
		c0.031-0.005,0.064-0.013,0.098-0.019c0.545-0.09,0.694-0.483,1.342-0.495c0.031-0.008,0.064-0.014,0.097-0.02
		c3.205,0.008,5.173,1.991,7.16,3.945c1.67-1.953,2.351-4.662,4.566-6.198C41.144,136.205,41.177,136.198,41.209,136.191z"/>
	<path fill-rule="evenodd" clip-rule="evenodd" fill="#ED6166" stroke="#FFFFFF" stroke-width="3.1527" stroke-miterlimit="10" d="
		M104.971,125.743c1.795-0.76,4.099-0.48,5.607-0.11c3.021,1.225,5.255,3.539,7.021,6.511c0.007,0.066,0.013,0.13,0.021,0.198
		c0.938,2.638,1.33,5.366,1.244,8.444c0.121,0.705-0.233,0.996-0.195,1.626c-3.607,11.371-11.182,19.272-18.728,27.192
		c-0.57-0.109-1.038-0.368-1.513-0.609c-0.061,0.008-0.12,0.015-0.179,0.023c-4.228-2.848-8.186-5.955-12.196-9.254
		c-3.162-2.601-5.982-4.808-8.279-8.154c-0.625-0.909-2.06-3.648-2.139-3.132c-0.268-0.001-0.213-0.454-0.261-0.766
		c-0.866-3.293-1.375-6.718-0.85-9.896c-0.007-0.067-0.015-0.132-0.021-0.196c1.311-3.519,3.462-6.297,6.172-8.589
		c0.06-0.007,0.118-0.015,0.178-0.023c0.988-0.091,1.301-0.775,2.463-0.714c0.059-0.007,0.119-0.015,0.178-0.022
		c5.755,0.436,9.073,4.256,12.432,8.025c3.21-3.288,4.722-8.065,8.868-10.531C104.854,125.758,104.914,125.75,104.971,125.743z"/>
	<path fill-rule="evenodd" clip-rule="evenodd" fill="#ED6166" stroke="#FFFFFF" stroke-width="2.2756" stroke-miterlimit="10" d="
		M132.2,143.413c1.354-0.334,2.972,0.135,4.014,0.574c2.04,1.228,3.414,3.14,4.391,5.469c-0.002,0.046-0.003,0.094-0.005,0.143
		c0.419,1.993,0.438,3.987,0.081,6.174c0.02,0.52-0.261,0.685-0.295,1.139c-3.662,7.699-9.826,12.457-15.971,17.232
		c-0.396-0.144-0.706-0.384-1.021-0.611c-0.045-0.002-0.088-0.003-0.13-0.005c-2.747-2.525-5.276-5.206-7.825-8.027
		c-2.008-2.228-3.812-4.131-5.131-6.788c-0.359-0.725-1.122-2.846-1.229-2.486c-0.19-0.032-0.107-0.35-0.112-0.578
		c-0.304-2.451-0.339-4.958,0.34-7.164c0.001-0.049,0.003-0.096,0.003-0.142c1.272-2.36,3.074-4.093,5.229-5.414
		c0.044,0.002,0.086,0.003,0.13,0.005c0.715,0.05,1.002-0.402,1.827-0.224c0.042,0.001,0.086,0.003,0.128,0.006
		c4.067,0.981,6.071,4.096,8.11,7.18c2.605-1.975,4.142-5.208,7.338-6.486C132.114,143.41,132.158,143.412,132.2,143.413z"/>
</g>
<g id="meeuwen">
	<path fill-rule="evenodd" clip-rule="evenodd" fill="#CFCECE" d="M112.473,42.747c8.917-0.009,15.564-15.746,27.848-6.656
		c-0.243,4.429,5.058,4.468,7.51,3.083c0.766-1.095-1.441-0.852-0.278-2.125c10.499-6.162,15.188,8.568,23.255,13.979
		c0.065-3.272-2.34-7.251-4.666-10.552c-2.277-3.229-5.523-7.51-10.523-8.474c-4.174-0.804-8.957,2.913-14.572,1.229
		c-4.841-1.449-7.789-4.905-12.021-3.579c-3.034,0.952-5.89,4.104-8.455,6.065C117.547,38.036,114.494,40.052,112.473,42.747z"/>
	<path fill-rule="evenodd" clip-rule="evenodd" fill="#CFCECE" d="M156.246,18.662c-4.845,0.187-12.142-1.455-16.641,2.474
		c0.102,1.266,1.282,0.825,1.763,1.493c-2.132,1.036-4.566,0.898-6.211,0.137c-0.112-0.606,0.864-0.371,0.821-0.924
		c-6.642-0.804-13.128,3.214-17.573,6.173c0.281-1.089,1.451-1.548,2.291-2.129c2.426-1.673,5.658-4.469,8.677-5.512
		c2.428-0.839,3.967,0.353,5.99,0.21c1.165-0.081,2.575-0.329,3.627-0.705c1.096-0.393,2.039-1.423,3.011-1.963
		C146.951,15.166,151.983,17.795,156.246,18.662z"/>
</g>
</svg>
