<?xml version="1.0" encoding="utf-8"?>
<!-- Generator: Adobe Illustrator 15.0.0, SVG Export Plug-In . SVG Version: 6.00 Build 0)  -->
<!DOCTYPE svg PUBLIC "-//W3C//DTD SVG 1.1//EN" "http://www.w3.org/Graphics/SVG/1.1/DTD/svg11.dtd">
<svg version="1.1" id="Layer_1" xmlns="http://www.w3.org/2000/svg" xmlns:xlink="http://www.w3.org/1999/xlink" x="0px" y="0px"
	 width="103px" height="62px" viewBox="0 0 103 62" enable-background="new 0 0 103 62" xml:space="preserve">
<path fill-rule="evenodd" clip-rule="evenodd" fill="#CFCECE" d="M54.92,47.085c-2.868,2.147-9.044,0.986-9.307,5.736
	c-0.362,0.832-0.054,2.325-0.154,3.414c-0.126,1.267-2.518,1.213-2.482-0.156c0-2.377,0-4.754,0-7.137c-9.41,0-18.816,0-28.226,0
	c-4.382-2.496,4.379-4.029,6.201-5.115c0.181,0.027,0.278-0.035,0.314-0.153c1.945-0.485,3.456-1.402,5.425-1.86
	c0.256-0.673-0.989-1.037-1.396-1.553c0.03-0.131-0.061-0.148-0.154-0.154c-0.432-0.658-1.086-1.086-1.704-1.553
	c0-0.052,0-0.104,0-0.154c-0.461-0.211-0.682-0.664-0.935-1.086c-0.048-0.565,0.175-0.859,0.313-1.24c0.048,0,0.103,0,0.154,0
	c-0.069-0.43,0.576-0.145,0.619-0.465c2.853-0.978,5.64-2.014,8.378-3.102c0.178,0.025,0.271-0.033,0.308-0.156
	c3.993-1.33,7.851-2.8,11.632-4.343c0.522-0.05,0.977-0.158,1.243-0.466c1.402-0.353,2.591-0.923,3.875-1.394
	c0.133,0.027,0.148-0.063,0.157-0.157c1.112-0.336,1.834-1.063,2.481-1.861c0.317-0.043,0.312-0.415,0.462-0.62
	c0.643-0.863,1.116-1.885,1.243-3.257c0.361-2.325,0.054-5.325,0.153-7.908c-0.085-1.122,0.305-1.769,0.624-2.483
	c0.052,0,0.1,0,0.151,0c-0.112-0.424,0.311-0.312,0.311-0.62c2.474-3.181,9.038-1.505,8.686,3.103
	c0.218,0.353,1.083,0.054,1.554,0.154c2.006,0.267,3.435,1.113,3.564,3.257c-1.652,0.101-3.719-0.208-5.118,0.154
	c0,0.309,0,0.62,0,0.932c0,4.963,0,9.926,0,14.888c0.172,2.86-0.435,4.942-1.085,6.976c-0.284,0.026-0.094,0.53-0.311,0.624
	c-0.568,1.24-1.282,2.334-2.016,3.411c-0.41,0.108-0.325,0.706-0.775,0.774c-0.41,0.504-0.953,0.504-0.932,0
	c0.19,0.595-0.102,0.963-0.621,1.551c-0.066,0.142-0.133,0.28-0.308,0.311c-0.224,0.088-0.38,0.241-0.468,0.468
	c-0.588,0.184-0.932,0.612-1.396,0.926C55.258,46.911,54.959,46.869,54.92,47.085z M59.416,13.274
	c1.828-3.574-5.048-1.561-1.242,0.466C58.85,13.844,59.137,13.563,59.416,13.274z"/>
<g>
	<path fill-rule="evenodd" clip-rule="evenodd" fill="#CFCECE" stroke="#CFCECE" stroke-miterlimit="10" d="M75.258,5.886
		c0.17,0.042,0.34,0.084,0.51,0.126c0.657,0.414,1.863,0.496,2.731,0.782c0.544,0.134,1.089,0.269,1.633,0.403
		c0.408,0.101,0.817,0.201,1.225,0.302c0.544,0.134,1.089,0.269,1.634,0.403c0.34,0.084,0.68,0.168,1.02,0.252
		c0.285,0.32,1.113,0.313,1.608,0.505c0.374,0.093,0.748,0.185,1.122,0.277c0.512,0.126,1.021,0.252,1.531,0.378
		c0.943,0.444,1.48,1.133,1.027,2.42c-0.102,0.408-0.201,0.816-0.303,1.224c-0.135,0.544-0.268,1.088-0.402,1.633
		c-0.127,0.511-0.252,1.021-0.379,1.532c-0.092,0.374-0.184,0.749-0.276,1.123c-0.321,0.284-0.313,1.112-0.505,1.608
		c-0.084,0.34-0.168,0.68-0.252,1.021c-0.168,0.68-0.336,1.361-0.504,2.041c-0.336,0.931-0.945,1.409-1.935,1.255
		c-0.578-0.143-1.157-0.286-1.735-0.429c-0.51-0.126-1.021-0.252-1.531-0.378c-0.441-0.109-0.884-0.218-1.326-0.327
		c-0.545-0.135-1.089-0.27-1.633-0.403c-0.341-0.084-0.681-0.168-1.021-0.252c-0.284-0.32-1.111-0.313-1.607-0.505
		c-0.375-0.092-0.748-0.185-1.123-0.277c-0.714-0.177-1.429-0.353-2.143-0.529c-0.205-0.051-0.408-0.101-0.613-0.151
		c-0.656-0.413-1.861-0.496-2.73-0.782c-0.374-0.092-0.748-0.185-1.123-0.277c-1.1-0.262-1.438-0.984-1.356-1.96
		c0.093-0.373,0.185-0.748,0.277-1.123c0.134-0.544,0.269-1.089,0.403-1.633c0.092-0.375,0.185-0.749,0.277-1.123
		c0.311-0.25,0.295-1.044,0.479-1.505c0.093-0.375,0.185-0.748,0.276-1.123c0.178-0.715,0.354-1.429,0.529-2.144
		c0.051-0.204,0.102-0.408,0.151-0.612c0.313-0.251,0.296-1.044,0.48-1.505c0.263-1.002,1.019-1.189,1.832-1.281
		c0.51,0.126,1.021,0.252,1.53,0.378C73.525,5.602,74.559,5.643,75.258,5.886z M71.383,5.796c-0.115-0.046-0.188-0.022-0.23,0.051
		c-0.356-0.063-0.52,0.194-0.661,0.487c-0.329,0.318-0.329,1.181-0.53,1.709c-0.186,0.749-0.369,1.497-0.555,2.246
		c-0.05,0.204-0.101,0.408-0.15,0.612c-0.406,0.623-0.48,1.794-0.758,2.628c-0.102,0.409-0.201,0.817-0.303,1.226
		c-0.134,0.543-0.269,1.088-0.402,1.633c-0.604,1.406,0.541,1.757,1.893,1.982c0.284,0.321,1.112,0.313,1.607,0.505
		c0.375,0.092,0.748,0.185,1.123,0.278c0.714,0.176,1.429,0.353,2.143,0.529c0.204,0.05,0.408,0.101,0.613,0.151
		c0.486,0.372,1.521,0.413,2.221,0.656c0.544,0.134,1.088,0.269,1.633,0.403c0.578,0.143,1.156,0.285,1.734,0.428
		c0.715,0.176,1.43,0.353,2.144,0.529c0.403,0.279,1.555,0.563,2.042,0.503c0.317-0.096,0.701-0.084,0.788-0.563
		c0.329-0.318,0.329-1.18,0.53-1.71c0.051-0.204,0.101-0.408,0.151-0.612c0.405-0.623,0.479-1.794,0.757-2.628
		c0.102-0.409,0.202-0.817,0.303-1.225c0.135-0.543,0.269-1.088,0.402-1.633c0.178-0.714,0.354-1.429,0.529-2.144
		c0.234-0.719,0.299-1.337-0.259-1.58c-0.151-0.285-0.839-0.246-1.2-0.404c-0.204-0.051-0.408-0.101-0.612-0.151
		c-0.487-0.372-1.521-0.413-2.22-0.656c-0.545-0.134-1.089-0.269-1.633-0.403c-0.545-0.134-1.09-0.269-1.634-0.403
		c-0.748-0.185-1.496-0.369-2.245-0.554c-0.285-0.321-1.112-0.313-1.607-0.506c-0.545-0.134-1.089-0.269-1.633-0.403
		c-0.58-0.143-1.158-0.286-1.736-0.428c-0.34-0.084-0.68-0.168-1.02-0.252C72.473,5.885,71.6,5.67,71.383,5.796z"/>
	<path fill-rule="evenodd" clip-rule="evenodd" fill="#CFCECE" stroke="#CFCECE" stroke-miterlimit="10" d="M71.029,7.225
		c-0.275,1.02,0.767,1.611,1.307,2.164c1.178,1.204,2.306,2.343,3.633,3.712c0.444,0.459,1.303,1.693,1.814,1.855
		c0.576,0.185,1.914-0.426,2.65-0.645c1.814-0.54,3.303-0.953,5.019-1.468c0.767-0.231,1.946-0.232,2.241-1.18
		c-1.689-0.41-3.284,0.545-4.792,0.983c-1.569,0.457-3.134,0.852-4.661,1.34c-1.159-0.935-2.177-2.149-3.3-3.306
		C73.706,9.411,72.5,7.777,71.029,7.225z"/>
</g>
</svg>
