<?xml version="1.0" encoding="utf-8"?>
<!-- Generator: Adobe Illustrator 15.0.0, SVG Export Plug-In . SVG Version: 6.00 Build 0)  -->
<!DOCTYPE svg PUBLIC "-//W3C//DTD SVG 1.1//EN" "http://www.w3.org/Graphics/SVG/1.1/DTD/svg11.dtd">
<svg version="1.1" id="Layer_1" xmlns="http://www.w3.org/2000/svg" xmlns:xlink="http://www.w3.org/1999/xlink" x="0px" y="0px"
	 width="103px" height="62px" viewBox="0 0 103 62" enable-background="new 0 0 103 62" xml:space="preserve">
<path fill="#27A7CE" d="M6.875,29.867C6.964,35.216,3.925,41.478,1.259,45c0,0,11.378-7.396,13.214-13.224
	c0.808,0.253,1.759,0.561,2.871,0.944c2.298,0.792,5.854,1.767,9.867,2.73c0.751,2.516,0.765,4.814-2.156,6.311
	c0,0,6.718-0.133,7.066-5.19c5.845,1.267,11.956,2.36,16.249,2.765c-0.419,1.367-1.065,3.132-1.996,4.807
	c-1.904,3.426-4.568,6.947-1.714,5.52c2.326-1.163,6.549-6.434,9.53-10.714c1.669,0.8,4.643,1.356,7.031,0.555
	c3.332-1.116,10.465-2.118,10.465-2.118l-2.769-1.016c12.872-1.453,29.842-2.808,33.04-3.5c-1.237-1.522-26.745-0.149-31.886-1.577
	c-5.14-1.426-10.246-3.829-13.419-4.948c-0.536-0.188-1.158-0.35-1.854-0.488c-1.563-4.047-3.336-7.843-5.096-9.696
	c-1.809-1.904-4.186-2.189-7.707-2.189c0,0,2.76,1.618,3.807,3.998c1.069,2.432,0.44,4.514-0.501,7.267
	c-11.517,0.102-26.799,2.207-30.777,3.697C12.922,22.796,2.582,12.592,0.593,13.496C5.732,21.775,6.779,24.155,6.875,29.867z
	 M65.288,32.921c0-0.553,0.446-1,0.999-1c0.552,0,0.998,0.447,0.998,1c0,0.551-0.446,1-0.998,1
	C65.734,33.921,65.288,33.472,65.288,32.921z"/>
</svg>
