<?xml version="1.0" encoding="utf-8"?>
<!-- Generator: Adobe Illustrator 15.0.0, SVG Export Plug-In . SVG Version: 6.00 Build 0)  -->
<!DOCTYPE svg PUBLIC "-//W3C//DTD SVG 1.1//EN" "http://www.w3.org/Graphics/SVG/1.1/DTD/svg11.dtd">
<svg version="1.1" id="Layer_1" xmlns="http://www.w3.org/2000/svg" xmlns:xlink="http://www.w3.org/1999/xlink" x="0px" y="0px"
	 width="103px" height="62px" viewBox="0 0 103 62" enable-background="new 0 0 103 62" xml:space="preserve">
<path fill="#CFCECE" d="M6.988,29.788c0.089,5.369-2.96,11.65-5.634,15.183c0,0,11.415-7.42,13.258-13.266
	c0.81,0.253,1.764,0.563,2.88,0.947c2.305,0.794,5.873,1.773,9.899,2.74c0.754,2.523,0.769,4.831-2.164,6.331
	c0,0,6.74-0.133,7.09-5.207c5.863,1.27,11.995,2.368,16.301,2.773c-0.42,1.371-1.068,3.143-2.001,4.822
	c-1.91,3.438-4.584,6.971-1.719,5.538c2.334-1.167,6.57-6.455,9.561-10.749c1.675,0.802,4.658,1.36,7.055,0.557
	c3.343-1.12,10.499-2.126,10.499-2.126l-2.777-1.02c12.914-1.456,29.939-2.815,33.148-3.51c-1.241-1.527-26.833-0.149-31.99-1.582
	c-5.156-1.433-10.28-3.844-13.464-4.966c-0.537-0.189-1.161-0.351-1.86-0.489c-1.568-4.06-3.347-7.869-5.112-9.728
	c-1.815-1.911-4.199-2.197-7.733-2.197c0,0,2.77,1.624,3.82,4.011c1.073,2.44,0.442,4.529-0.502,7.291
	c-11.554,0.102-26.887,2.214-30.879,3.709c-1.606-6.157-11.98-16.396-13.977-15.488C5.842,21.671,6.893,24.059,6.988,29.788z
	 M65.594,32.854c0-0.554,0.448-1.003,1.002-1.003s1.002,0.449,1.002,1.003c0,0.553-0.448,1.002-1.002,1.002
	S65.594,33.407,65.594,32.854z"/>
</svg>
